# xmcd CD database file
#
# Track frame offsets:
#	161
#	8033
#	24648
#	48808
#	57992
#	83047
#	108007
#	126312
#	139106
#	150726
#	171904
#	199527
#	246999
#
# Disc length: 3976 seconds
#
# Revision: 0
# Processed by: cddbd v1.5.2PL0 Copyright (c) Steve Scherf et al.
# Submitted via: CDex 1.51
#
DISCID=a30f860d
DTITLE=Alain Berkes - La danse de l'Ours
DYEAR=2000
DGENRE=Blues
TTITLE0=Intro (morning Jam)
TTITLE1=T'en vas pas
TTITLE2=Paris Summer Blues
TTITLE3=Celtiko
TTITLE4=I gotta do it
TTITLE5=Top Models
TTITLE6=Basin Street Blues
TTITLE7=Piano sketches
TTITLE8=Ils pissent (part 1)
TTITLE9=Ils pissent (part 2)
TTITLE10=J'ai la vista
TTITLE11=W.B.C.
TTITLE12=Si j'ai peur
EXTD=YEAR: 2000
EXTT0=
EXTT1=
EXTT2=
EXTT3=
EXTT4=
EXTT5=
EXTT6=
EXTT7=
EXTT8=
EXTT9=
EXTT10=
EXTT11=
EXTT12=
PLAYORDER=
